<?xml version="1.0" standalone="no"?>
<!DOCTYPE svg PUBLIC "-//W3C//DTD SVG 20010904//EN"
 "http://www.w3.org/TR/2001/REC-SVG-20010904/DTD/svg10.dtd">
<svg version="1.0" xmlns="http://www.w3.org/2000/svg"
 width="1024.000000pt" height="1024.000000pt" viewBox="0 0 1024.000000 1024.000000"
 preserveAspectRatio="xMidYMid meet">

<g transform="translate(0.000000,1024.000000) scale(0.100000,-0.100000)"
fill="#000000" stroke="none">
<path d="M8275 9126 c-431 -145 -932 -321 -1315 -461 -152 -55 -156 -56 -206
-44 -73 17 -170 8 -224 -20 -104 -53 -254 -191 -291 -266 -18 -38 -24 -68 -25
-123 l-1 -74 -175 -176 c-177 -180 -266 -277 -399 -437 -160 -192 -433 -557
-582 -778 -52 -78 -84 -116 -93 -113 -38 14 -391 28 -594 23 -345 -9 -590 -42
-839 -112 -283 -79 -517 -221 -587 -356 -12 -24 -147 -481 -239 -812 -7 -26
-35 -78 -63 -115 -284 -388 -510 -875 -611 -1317 -72 -317 -70 -720 6 -1040
146 -620 530 -1119 1110 -1443 683 -382 1591 -456 2357 -192 668 230 1195 713
1434 1316 170 427 208 911 106 1356 -91 401 -276 821 -527 1198 -39 58 -82
121 -97 140 -27 35 -52 114 -174 550 -30 107 -62 224 -71 259 -9 36 -25 81
-35 100 -43 85 -151 176 -288 245 l-54 27 28 37 c86 115 481 600 813 1000 81
97 87 102 116 96 18 -3 52 0 76 6 94 26 295 192 335 278 19 42 28 48 190 131
211 109 648 345 944 509 124 69 254 142 290 162 139 77 163 97 196 162 27 54
32 125 10 166 -18 34 -118 131 -170 166 -62 41 -102 36 -351 -48z m335 -196
c0 -4 -6 -12 -12 -17 -15 -12 -366 -200 -593 -318 -82 -43 -199 -104 -260
-135 -338 -177 -578 -300 -579 -298 -1 2 -18 37 -39 78 -20 41 -61 108 -91
147 -30 40 -51 75 -46 78 34 21 933 348 1425 518 l100 34 47 -40 c27 -22 48
-43 48 -47z m-1891 -505 c80 -41 259 -298 275 -396 9 -53 -19 -100 -104 -168
-63 -52 -81 -61 -114 -61 -66 0 -138 64 -279 249 -119 158 -116 199 29 314
103 83 134 93 193 62z m-376 -515 c10 -16 54 -68 98 -115 45 -46 79 -89 77
-94 -1 -5 -98 -123 -214 -263 -409 -492 -780 -968 -997 -1279 l-67 -96 -52 -6
c-85 -11 -308 -8 -308 3 0 13 42 79 233 365 390 585 709 997 1046 1354 69 73
130 140 134 147 13 22 31 16 50 -16z m-1506 -1464 c3 -3 -33 -67 -79 -143
-180 -294 -181 -296 -153 -339 23 -35 125 -81 219 -99 90 -17 301 -20 396 -5
144 23 196 54 266 157 32 47 181 261 189 271 5 6 82 -32 141 -69 71 -45 124
-100 124 -129 0 -11 -16 -38 -36 -60 -183 -202 -857 -333 -1546 -300 -518 25
-901 108 -1105 241 -54 35 -113 95 -113 114 0 15 49 70 95 104 182 138 533
232 970 262 122 8 623 4 632 -5z m1253 -835 c45 -162 60 -233 56 -257 -9 -47
-85 -126 -165 -172 -207 -119 -554 -207 -1006 -253 -154 -16 -712 -16 -870 0
-358 36 -597 82 -798 155 -231 84 -367 195 -367 300 0 33 103 431 115 444 2 2
30 -15 63 -37 239 -164 718 -263 1337 -278 663 -15 1269 100 1525 291 25 18
46 33 46 32 1 0 30 -102 64 -225z"/>
</g>
</svg>
